#!OML:ASF H:\ManfredETheater\Project 1\Capture day 1\Session 1\subject.ASF
:FULLY-SPECIFIED
:DEGREES
113
root 8.24585 13.5463 -4.7586 55.5796 -85.8808 -31.8651
lowerback 53.1945 -2.6977 1.84461
upperback 12.0143 -4.27771 0.800361
thorax -7.44456 -2.7922 1.94838
lowerneck 3.32588 -11.1372 -12.5277
upperneck -9.75302 -14.3434 22.2612
head -0.691889 -7.85685 8.81716
rclavicle 1.74931e-014 3.10104e-014
rhumerus -27.4472 -1.83644 -83.8342
rradius 44.2171
rwrist -9.90587
rhand -25.3449 -3.07643
rfingers 7.12502
rthumb 1.17844 -33.0529
lclavicle 1.74931e-014 3.10104e-014
lhumerus -17.8493 -1.63757 72.5638
lradius 124.038
lwrist -5.86597
lhand -35.483 2.01836
lfingers 7.12502
lthumb -8.61091 31.8228
rfemur -87.6953 -35.9315 20.9776
rtibia 102.867
rfoot -0.0901569 -4.63408
rtoes 14.9836
lfemur -85.5284 23.3098 -22.0466
ltibia 95.2551
lfoot -26.6119 -16.7743
ltoes 6.9556
114
root 8.14105 13.5655 -5.13859 59.0127 -86.1734 -35.3016
lowerback 53.0324 -2.32782 1.68308
upperback 11.8177 -3.88683 0.987961
thorax -7.64213 -2.61949 2.06633
lowerneck 3.14798 -11.3914 -12.2399
upperneck -10.1395 -14.6355 22.012
head -0.767164 -8.01465 8.67748
rclavicle -4.13472e-014 -3.24019e-014
rhumerus -26.5383 -3.55439 -82.5726
rradius 43.0467
rwrist -8.4406
rhand -24.9891 -2.85253
rfingers 7.12502
rthumb 1.5221 -32.8268
lclavicle -4.13472e-014 -3.24019e-014
lhumerus -17.1498 -3.17667 73.7529
lradius 123.293
lwrist -6.6843
lhand -37.8149 1.12667
lfingers 7.12502
lthumb -10.8607 30.8258
rfemur -85.9119 -34.9422 18.2426
rtibia 98.6359
rfoot -1.63538 -7.8307
rtoes 15.6496
lfemur -82.7953 22.8884 -18.9694
ltibia 93.5962
lfoot -30.6253 -13.6466
ltoes 2.70905
115
root 8.02969 13.5403 -5.51679 56.6988 -86.4158 -32.9668
lowerback 52.8442 -2.24151 1.72984
upperback 11.6005 -3.708 1.09621
thorax -7.8658 -2.527 2.09252
lowerneck 2.92353 -11.6994 -11.9262
upperneck -10.5826 -14.9896 21.8755
head -0.833591 -8.21266 8.56465
rclavicle -5.64548e-014 -1.13307e-014
rhumerus -25.958 -4.86882 -81.3499
rradius 42.594
rwrist -7.70298
rhand -24.7706 -2.80931
rfingers 7.12502
rthumb 1.73315 -32.782
lclavicle -5.64548e-014 -1.13307e-014
lhumerus -16.617 -4.41359 74.8993
lradius 122.263
lwrist -7.73942
lhand -39.7265 -0.0172151
lfingers 7.12502
lthumb -12.7041 29.5764
rfemur -84.6075 -34.6609 15.7987
rtibia 94.4007
rfoot -3.53035 -11.1342
rtoes 15.845
lfemur -80.4625 22.2337 -16.3654
ltibia 92.0126
lfoot -32.3306 -10.0503
ltoes -6.94574
116
root 7.91112 13.5353 -5.91015 49.3897 -86.8671 -25.5881
lowerback 52.575 -2.08507 1.45672
upperback 11.3667 -3.60839 1.13094
thorax -8.09676 -2.46332 2.21654
lowerneck 2.70164 -11.9635 -11.7083
upperneck -11.1224 -15.2741 21.9786
head -0.909835 -8.39109 8.55132
rclavicle -1.74931e-014 1.47101e-014
rhumerus -25.6832 -6.27633 -80.233
rradius 42.6441
rwrist -7.08066
rhand -24.7324 -2.73619
rfingers 7.12502
rthumb 1.77001 -32.7086
lclavicle -1.74931e-014 1.47101e-014
lhumerus -16.0452 -5.24183 75.9216
lradius 120.773
lwrist -8.76443
lhand -41.2618 -1.5946
lfingers 7.12502
lthumb -14.1839 27.9012
rfemur -83.4315 -34.5222 13.6603
rtibia 89.8381
rfoot -5.1974 -14.7612
rtoes 15.6749
lfemur -79.5347 21.8785 -14.0293
ltibia 91.594
lfoot -31.307 -10.8037
ltoes -6.78205
117
root 7.78218 13.5102 -6.31605 32.829 -87.3096 -8.98145
lowerback 52.2467 -2.00492 1.07518
upperback 11.1498 -3.66267 1.03692
thorax -8.30223 -2.45879 2.31372
lowerneck 2.44034 -12.2226 -11.4185
upperneck -11.7175 -15.5443 22.0727
head -1.00553 -8.56822 8.52596
rclavicle 2.78299e-014 -2.74323e-014
rhumerus -25.6915 -7.45974 -79.2471
rradius 43.152
rwrist -7.0988
rhand -25.2056 -2.66654
rfingers 7.12502
rthumb 1.31299 -32.6422
lclavicle 2.78299e-014 -2.74323e-014
lhumerus -15.7348 -5.6855 76.6094
lradius 119.217
lwrist -9.34001
lhand -42.2332 -3.4121
lfingers 7.12502
lthumb -15.1198 26.0156
rfemur -82.6503 -34.7872 11.777
rtibia 85.4781
rfoot -6.61477 -18.1698
rtoes 15.1811
lfemur -78.685 21.7384 -12.6629
ltibia 90.8747
lfoot -30.4282 -9.0455
ltoes -14.6045
118
root 7.65419 13.4899 -6.71235 21.959 -87.1163 1.34834
lowerback 52.5683 -2.39022 1.61195
upperback 10.8982 -3.81661 0.883885
thorax -8.6379 -2.50113 1.98701
lowerneck 2.6778 -12.4235 -11.0828
upperneck -12.893 -15.6979 22.2585
head -1.36628 -8.74667 8.6049
rclavicle -2.3059e-014 1.78906e-015
rhumerus -25.8674 -8.80396 -78.24
rradius 43.8767
rwrist -7.17333
rhand -25.4655 -2.3124
rfingers 7.12502
rthumb 1.06198 -32.2895
lclavicle -2.3059e-014 1.78906e-015
lhumerus -15.2371 -5.77272 76.9807
lradius 117.196
lwrist -9.81579
lhand -42.5751 -5.57633
lfingers 7.12502
lthumb -15.4491 23.8263
rfemur -81.204 -35.3583 10.6372
rtibia 81.1659
rfoot -7.95079 -21.2215
rtoes 14.489
lfemur -77.1067 21.5548 -10.3997
ltibia 90.3177
lfoot -29.8091 -9.59079
ltoes -17.3373
119
root 7.51073 13.418 -7.119 2.71098 -86.8301 19.904
lowerback 52.9904 -2.77386 1.89042
upperback 10.6244 -4.11236 0.575381
thorax -9.01367 -2.59874 1.67533
lowerneck 2.92116 -12.6646 -10.7842
upperneck -14.0245 -15.9117 22.4372
head -1.70444 -8.95349 8.68625
rclavicle -3.73715e-014 -5.74488e-014
rhumerus -26.2935 -9.53416 -77.3275
rradius 44.938
rwrist -8.35202
rhand -26.3474 -2.18453
rfingers 7.12502
rthumb 0.210199 -32.1642
lclavicle -3.73715e-014 -5.74488e-014
lhumerus -14.6806 -5.773 77.4353
lradius 114.681
lwrist -10.6913
lhand -43.0591 -6.64966
lfingers 7.12502
lthumb -15.9153 22.7164
rfemur -80.1994 -36.3618 9.43737
rtibia 77.3432
rfoot -9.49332 -23.7343
rtoes 13.6399
lfemur -75.1321 21.3048 -8.5011
ltibia 89.5987
lfoot -29.3442 -10.3993
ltoes -20.5037
120
root 7.38781 13.3408 -7.56156 -33.4401 -88.0097 57.5404
lowerback 49.8744 -1.65343 0.693376
upperback 10.8248 -3.45274 0.0283992
thorax -8.43146 -2.25773 1.27325
lowerneck 2.94528 -12.9985 -10.1099
upperneck -14.9408 -16.2431 22.5046
head -1.97307 -9.21312 8.64437
rclavicle 3.65764e-014 -3.81667e-014
rhumerus -26.9172 -10.61 -76.623
rradius 45.9311
rwrist -8.91038
rhand -27.254 -1.84024
rfingers 7.12502
rthumb -0.665397 -31.819
lclavicle 3.65764e-014 -3.81667e-014
lhumerus -13.8054 -5.88215 77.9522
lradius 111.424
lwrist -12.1358
lhand -43.5423 -7.31946
lfingers 7.12502
lthumb -16.3805 22.0088
rfemur -83.1531 -35.4115 10.2526
rtibia 73.8784
rfoot 4.3877 -24.7505
rtoes 6.22647
lfemur -74.8773 23.5725 -7.48714
ltibia 88.4204
lfoot -28.7741 -11.6284
ltoes -23.2079
121
root 7.27354 13.3467 -7.97923 -65.0639 -87.3425 89.4186
lowerback 47.7413 -1.49028 -0.0944772
upperback 11.6722 -3.63572 -0.347205
thorax -8.43684 -2.30611 1.37442
lowerneck 2.55041 -13.0413 -10.5759
upperneck -15.369 -16.3047 22.5177
head -1.97539 -9.23556 8.70416
rclavicle 2.46493e-014 -1.53064e-014
rhumerus -27.2276 -9.48235 -75.5919
rradius 46.9759
rwrist -10.1837
rhand -27.7249 -1.55736
rfingers 7.12502
rthumb -1.12023 -31.5342
lclavicle 2.46493e-014 -1.53064e-014
lhumerus -13.1679 -4.34725 78.6671
lradius 107.745
lwrist -13.9902
lhand -43.4802 -7.92868
lfingers 7.12502
lthumb -16.3208 21.4045
rfemur -83.4444 -35.0823 8.91949
rtibia 71.4224
rfoot 6.17223 -23
rtoes 7.39564
lfemur -72.5279 24.0499 -6.01559
ltibia 86.4504
lfoot -27.8575 -13.8858
ltoes -21.8298
122
root 7.17312 13.4407 -8.38419 -75.9861 -86.2572 99.779
lowerback 47.6615 -1.67938 -0.215851
upperback 11.3801 -3.93665 -0.796288
thorax -8.77444 -2.40745 1.09605
lowerneck 2.30829 -13.1426 -10.7369
upperneck -15.7687 -16.4324 22.4437
head -2.02273 -9.30116 8.70038
rclavicle -3.97569e-015 -8.74653e-015
rhumerus -27.5097 -9.6523 -74.4225
rradius 47.4053
rwrist -9.84873
rhand -27.9072 -0.758947
rfingers 7.12502
rthumb -1.29624 -30.7348
lclavicle -3.97569e-015 -8.74653e-015
lhumerus -12.9961 -3.72932 79.0991
lradius 104.231
lwrist -14.1758
lhand -45.6856 -6.43925
lfingers 7.12502
lthumb -18.4432 22.7064
rfemur -83.1164 -35.2261 7.45576
rtibia 70.433
rfoot -1.00414 -21.3778
rtoes 19.2246
lfemur -68.9647 23.6244 -4.70248
ltibia 83.8066
lfoot -27.6286 -13.7154
ltoes -23.7855
123
root 7.03232 13.385 -8.79621 -83.835 -84.7891 106.737
lowerback 47.8055 -1.80231 -0.595738
upperback 11.1805 -4.32194 -1.32697
thorax -9.05732 -2.55531 0.901118
lowerneck 1.90528 -13.1971 -10.8921
upperneck -16.1881 -16.4912 22.3763
head -2.06022 -9.32974 8.69099
rclavicle 3.65764e-014 3.57812e-015
rhumerus -27.393 -9.94393 -73.1862
rradius 47.3898
rwrist -8.3259
rhand -27.9578 -0.0590405
rfingers 7.12502
rthumb -1.3452 -30.0345
lclavicle 3.65764e-014 3.57812e-015
lhumerus -12.5454 -2.73053 79.5014
lradius 100.374
lwrist -14.0873
lhand -46.5254 -7.85089
lfingers 7.12502
lthumb -19.2509 21.2163
rfemur -84.9285 -36.355 9.42518
rtibia 71.6493
rfoot 1.92585 -16.1138
rtoes -8.6228
lfemur -65.3627 23.3352 -3.43846
ltibia 81.6782
lfoot -27.5974 -13.3186
ltoes -26.1089
124
root 6.90155 13.3779 -9.20963 -88.9493 -83.3631 110.684
lowerback 49.2015 -1.97066 -0.90921
upperback 9.92237 -4.75436 -1.76366
thorax -9.41764 -2.7191 0.672028
lowerneck 1.80854 -13.204 -11.0599
upperneck -16.8111 -16.476 22.3976
head -2.20932 -9.34695 8.75721
rclavicle -6.36111e-015 5.56597e-015
rhumerus -27.1435 -9.75168 -71.9552
rradius 47.1538
rwrist -6.89581
rhand -28.0829 0.303004
rfingers 7.12502
rthumb -1.466 -29.6717
lclavicle -6.36111e-015 5.56597e-015
lhumerus -12.399 -1.61253 79.6496
lradius 96.7085
lwrist -13.4673
lhand -46.8124 -8.18689
lfingers 7.12502
lthumb -19.5269 20.8525
rfemur -85.7996 -36.7897 9.77611
rtibia 73.931
rfoot 0.593527 -16.0026
rtoes -14.9788
lfemur -61.2678 22.5497 -2.15011
ltibia 79.3503
lfoot -27.5995 -11.9373
ltoes -28.9528
125
root 6.77147 13.3457 -9.62906 -93.7568 -81.8481 114.583
lowerback 49.1861 -1.94788 -1.37176
upperback 9.65932 -5.03014 -2.31451
thorax -9.74006 -2.81141 0.426033
lowerneck 1.91123 -13.242 -10.89
upperneck -17.538 -16.494 22.2953
head -2.46315 -9.40164 8.762
rclavicle 3.85642e-014 4.27387e-014
rhumerus -26.7572 -9.80685 -70.6613
rradius 46.6363
rwrist -5.21771
rhand -28.0305 0.54365
rfingers 7.12502
rthumb -1.41533 -29.4314
lclavicle 3.85642e-014 4.27387e-014
lhumerus -12.6093 -0.569263 79.9343
lradius 93.6714
lwrist -11.9764
lhand -46.4754 -9.44253
lfingers 7.12502
lthumb -19.2029 19.6294
rfemur -87.4402 -36.9825 10.7529
rtibia 77.0748
rfoot -0.885324 -17.5711
rtoes -17.7778
lfemur -57.5323 21.7443 -1.0568
ltibia 77.1866
lfoot -27.3008 -10.1322
ltoes -31.2355
